<svg width="163" height="328" viewBox="0 0 163 328" fill="none" xmlns="http://www.w3.org/2000/svg">
<path d="M35.824 28.92C33.808 47.064 28.624 66.552 22.96 79.416L24.112 80.088C26.8 77.688 29.2 75 31.504 72.024V120.12H33.808C38.608 120.12 43.888 117.624 43.984 116.76V60.792C45.808 60.504 46.672 59.832 47.056 58.968L41.008 56.76C44.08 50.52 46.672 43.704 48.88 36.216C51.088 36.216 52.336 35.448 52.72 34.2L35.824 28.92ZM97.072 51.96C96.88 62.04 95.92 72.024 93.616 81.432C91.024 75.96 89.104 69.912 87.856 63C89.968 59.64 91.888 55.896 93.616 51.96H97.072ZM75.184 68.76L71.344 72.984V54.936H82.672C81.52 61.176 80.176 67.128 78.64 72.024L75.184 68.76ZM60.688 101.976V76.824H68.848V101.976H60.688ZM114.64 51.96C115.984 51.96 117.04 51.48 117.232 50.424C113.392 46.296 106.48 39.96 106.48 39.96L100.336 49.272H94.672C96.4 44.856 97.936 40.152 99.184 35.16C101.392 34.968 102.544 34.104 102.928 32.856L85.456 29.016C85.168 35.736 84.496 42.84 83.536 49.656C80.656 46.776 77.776 44.088 77.776 44.088L72.4 52.248H71.344V33.048C73.648 32.664 74.32 31.8 74.512 30.552L58.384 29.208V52.248H45.712L46.48 54.936H58.384V73.08L49.072 69.336V114.264H50.8C55.696 114.264 60.688 111.672 60.688 110.52V104.664H68.848V110.808H71.056C76.24 110.808 80.56 108.216 80.656 107.64V78.936C82.192 78.744 83.44 78.072 84.112 77.304L79.792 73.176C82.096 70.872 84.208 68.28 86.224 65.496C86.992 75.192 88.144 84.12 90.16 92.184C86.224 102.264 80.08 111.576 70.96 119.352L71.632 120.216C81.136 115.8 88.336 110.136 93.904 103.512C96.592 109.944 100.048 115.416 104.656 119.832C106.384 113.112 110.128 109.08 116.944 107.352L117.328 106.392C110.8 102.936 105.328 98.52 100.912 93.048C107.248 80.952 109.84 66.84 110.896 51.96H114.64Z" fill="#101010"/>
<path d="M74.712 210.976C78.072 215.296 80.664 221.92 80.568 227.872C91.032 236.8 102.552 215.872 75.576 210.496L74.712 210.976ZM54.264 224.512C53.496 228.064 52.344 232.864 51.48 236.32H46.2L41.208 234.4C43.896 231.424 46.392 228.16 48.696 224.512H54.264ZM62.808 239.008V252.448H58.2V239.008H62.808ZM58.2 270.112V255.136H62.808V270.112H58.2ZM44.952 255.136H49.272V270.112H44.952V255.136ZM44.952 239.008H49.272V252.448H44.952V239.008ZM62.808 272.8V276.352H64.824C69.24 276.352 73.56 274.432 73.752 273.952V240.832C75.384 240.448 76.632 239.776 77.304 239.008L67.992 231.136L63 236.32H53.688C57.912 233.44 63.384 229.12 66.744 226.336C68.76 226.24 69.72 226.048 70.488 225.184L60.024 215.776L53.784 221.824H50.328C51.384 220 52.344 218.08 53.304 216.16C55.512 216.064 56.664 215.296 57.048 214.048L40.824 209.344C38.328 222.304 33.24 235.552 27.96 244L29.112 244.768C30.744 243.712 32.376 242.56 33.912 241.312V278.656H35.832C36.696 278.656 37.56 278.56 38.424 278.464C38.616 282.976 35.832 287.488 33.336 289.312C30.264 290.944 28.248 293.92 29.496 297.472C31.032 301.216 35.928 301.984 38.808 299.776C42.744 296.608 44.568 288.736 39.768 278.272C43.032 277.504 44.952 275.968 44.952 275.392V272.8H62.808ZM45.144 279.232C46.2 284.032 46.488 290.848 45.144 296.608C51.48 304.96 62.808 290.848 46.392 278.848L45.144 279.232ZM54.072 278.752C56.088 283.168 57.912 289.792 57.528 295.36C65.016 303.04 75.288 287.392 55.128 278.272L54.072 278.752ZM63.96 277.984C67.32 281.824 70.008 288.064 69.72 293.536C78.648 301.216 88.44 282.592 64.824 277.408L63.96 277.984ZM104.568 271.168H101.976V253.12H117.144C118.584 253.12 119.544 252.64 119.832 251.584C115.8 247.744 108.792 241.888 108.792 241.888L102.648 250.432H101.976V233.824H117.72C119.064 233.824 120.12 233.344 120.312 232.288C116.28 228.544 109.272 223.072 109.272 223.072L103.224 231.136H97.656C103.32 226.336 108.984 220.288 112.536 215.776C114.648 215.776 115.8 214.912 116.088 213.76L100.056 209.728C99.192 215.968 97.368 224.8 95.256 231.136H74.712L75.48 233.824H89.016V250.432H76.44L77.208 253.12H89.016V271.168H74.712L75.48 273.856H89.016V300.928H91.416C98.04 300.928 101.88 298.432 101.976 297.664V273.856H119.256C120.6 273.856 121.656 273.376 121.944 272.32C117.816 268.384 110.808 262.624 110.808 262.624L104.568 271.168Z" fill="#101010"/>
<path d="M19.788 153.928L21.522 159.878H23.494L23.358 152.602H0.918L0.782 159.878H2.788L4.488 153.928H9.18C9.248 157.43 9.248 161 9.248 164.57V166.066C9.248 169.602 9.248 173.104 9.18 176.504L5.746 176.844V178H18.53V176.844L15.062 176.504C14.994 173.036 14.994 169.5 14.994 166.032V164.57C14.994 160.966 14.994 157.43 15.062 153.928H19.788ZM31.6269 165.998C28.9749 165.182 28.2949 164.162 28.2949 162.904C28.2949 161.204 29.6549 160.15 31.7289 160.15C32.7489 160.15 33.4629 160.32 34.1769 160.66L35.4689 164.672H37.3729L37.6449 160.388C35.6389 159.402 33.9049 158.858 31.6269 158.858C26.6289 158.858 23.8409 161.442 23.8409 165.012C23.8409 167.902 25.6429 169.636 28.7029 170.588L30.6749 171.166C33.3949 172.016 34.0409 173.036 34.0409 174.464C34.0409 176.334 32.6129 177.252 30.0289 177.252C28.9409 177.252 28.0909 177.082 27.2409 176.742L26.1869 172.254H24.0109L23.7389 176.878C25.7449 178 27.8189 178.578 30.4709 178.578C35.6049 178.578 38.7669 176.266 38.7669 172.322C38.7669 169.534 37.2029 167.63 33.6329 166.576L31.6269 165.998ZM50.5561 178.578C56.3361 178.578 60.2121 174.702 60.2121 168.616C60.2121 162.53 55.9281 158.858 50.5561 158.858C45.2181 158.858 40.9341 162.598 40.9341 168.616C40.9341 174.6 44.7421 178.578 50.5561 178.578ZM50.5561 177.388C48.1081 177.388 46.7481 174.6 46.7481 168.684C46.7481 162.734 48.1081 160.048 50.5561 160.048C53.0041 160.048 54.3301 162.734 54.3301 168.684C54.3301 174.6 53.0041 177.388 50.5561 177.388ZM52.6981 155.764C51.9501 154.506 51.2361 153.214 49.8761 150.562C49.0261 148.964 48.1421 148.284 47.0201 148.284C46.0681 148.284 45.1501 149.032 45.1501 150.222C45.1501 151.276 46.0341 152.228 47.5641 153.214C49.8081 154.744 50.8621 155.492 51.9501 156.342L52.6981 155.764ZM80.537 162.088C78.157 161 76.865 159.742 76.865 157.396C76.865 154.846 78.769 153.35 81.727 153.35C82.577 153.35 83.257 153.452 83.937 153.758L85.671 159.402H87.643L87.949 153.86C86.079 152.636 83.699 151.922 81.047 151.922C75.505 151.922 71.799 154.54 71.799 159.13C71.799 163.21 74.213 165.488 78.769 167.528L80.401 168.242C83.121 169.432 84.107 170.656 84.107 172.968C84.107 175.62 82.237 177.218 78.871 177.218C77.579 177.218 76.559 177.082 75.539 176.708L73.737 170.792H71.765L71.527 176.64C73.567 177.966 76.661 178.68 79.449 178.68C85.841 178.68 89.275 175.586 89.275 171.064C89.275 167.222 87.405 165.182 82.339 162.904L80.537 162.088ZM96.7993 155.492C98.4313 155.492 99.7573 154.336 99.7573 152.738C99.7573 151.106 98.4313 149.95 96.7993 149.95C95.2013 149.95 93.8753 151.106 93.8753 152.738C93.8753 154.336 95.2013 155.492 96.7993 155.492ZM99.7233 176.742C99.6893 174.77 99.6553 171.812 99.6553 169.908V164.672L99.7913 159.232L99.3153 158.892L91.5293 160.932V161.748L94.0793 162.02C94.1473 163.754 94.1813 165.012 94.1813 167.188V169.908C94.1813 171.812 94.1473 174.736 94.1133 176.742L91.8693 176.946V178H101.797V176.946L99.7233 176.742ZM114.697 174.702C113.439 175.824 112.657 176.266 111.739 176.266C110.141 176.266 109.189 175.314 109.189 173.274C109.189 170.792 110.447 169.194 112.827 168.208C113.235 168.038 113.915 167.834 114.697 167.63V174.702ZM107.421 160.864L107.965 160.66L107.421 160.864ZM122.585 175.45C121.939 176.47 121.565 176.742 121.055 176.742C120.409 176.742 120.001 176.3 120.001 175.008V165.862C120.001 160.932 118.063 158.858 113.235 158.858C107.965 158.858 105.007 160.898 104.735 164.094C105.007 165.216 105.857 165.828 107.081 165.828C108.373 165.828 109.529 164.91 109.631 162.598L109.869 160.184C110.379 160.082 110.821 160.048 111.297 160.048C113.881 160.048 114.697 161.102 114.697 164.638V166.712C113.507 167.018 112.317 167.324 111.365 167.596C105.891 169.194 104.123 170.86 104.123 173.954C104.123 176.81 106.163 178.578 109.087 178.578C111.807 178.578 113.099 177.524 114.833 175.62C115.343 177.456 116.601 178.578 118.845 178.578C121.021 178.578 122.313 177.796 123.163 175.926L122.585 175.45ZM143.924 176.776C143.856 174.804 143.822 171.914 143.822 169.908V165.42C143.822 160.966 141.612 158.858 138.382 158.858C136.138 158.858 134.268 159.64 132.024 162.224L131.82 159.232L131.344 158.892L123.966 161.034V161.85L126.516 162.122C126.584 163.754 126.618 164.876 126.618 167.086V169.908C126.618 171.812 126.584 174.736 126.55 176.742L124.272 176.946V178H134.098V176.946L132.16 176.776C132.126 174.77 132.092 171.812 132.092 169.908V163.346C133.554 162.054 134.948 161.408 135.968 161.408C137.566 161.408 138.314 162.36 138.314 165.012V169.908C138.314 171.88 138.28 174.77 138.246 176.742L136.104 176.946V178H145.964V176.946L143.924 176.776Z" fill="#101010"/>
<circle cx="130" cy="319" r="7" stroke="#101010" stroke-width="4"/>
</svg>
