<svg width="26" height="31" viewBox="0 0 26 31" fill="none" xmlns="http://www.w3.org/2000/svg">
<path d="M17.0827 26.4688C15.9934 28.1562 14.6331 29 13 29C11.3669 29 10.0066 28.1562 8.91733 26.4688M21.3042 23.9375H4.69585C4.21873 23.9377 3.7501 23.8071 3.33787 23.5588C2.92564 23.3106 2.58458 22.9537 2.34956 22.5246C2.11455 22.0956 1.99399 21.6097 2.00023 21.1167C2.00647 20.6238 2.13927 20.1413 2.38506 19.7188C3.9878 16.9584 4.8345 13.8 4.83466 10.5809V8.75C4.83466 6.95979 5.52288 5.2429 6.74792 3.97703C7.97296 2.71116 9.63447 2 11.3669 2H14.6331C16.3655 2 18.027 2.71116 19.2521 3.97703C20.4771 5.2429 21.1653 6.95979 21.1653 8.75V10.5809C21.1653 13.799 22.0113 16.9597 23.6149 19.7188C23.8607 20.1413 23.9935 20.6238 23.9998 21.1167C24.006 21.6097 23.8855 22.0956 23.6504 22.5246C23.4154 22.9537 23.0744 23.3106 22.6621 23.5588C22.2499 23.8071 21.7813 23.9377 21.3042 23.9375V23.9375Z" stroke="#787878" stroke-width="3" stroke-linecap="round" stroke-linejoin="round"/>
</svg>
