<svg width="27" height="27" viewBox="0 0 27 27" fill="none" xmlns="http://www.w3.org/2000/svg">
<path fill-rule="evenodd" clip-rule="evenodd" d="M19.3847 0C23.9396 0 27 3.1973 27 7.95558V19.0444C27 23.8027 23.9396 27 19.3847 27H7.61526C3.06042 27 0 23.8027 0 19.0444V7.95558C0 3.1973 3.06042 0 7.61526 0H19.3847ZM19.3847 1.88372H7.61526C4.13414 1.88372 1.88372 4.266 1.88372 7.95558V19.0444C1.88372 22.734 4.13414 25.1163 7.61526 25.1163H19.3847C22.8671 25.1163 25.1163 22.734 25.1163 19.0444V7.95558C25.1163 4.266 22.8671 1.88372 19.3847 1.88372ZM13.5 7.94591C14.0199 7.94591 14.4419 8.36787 14.4419 8.88777V12.5456L18.1044 12.5458C18.6243 12.5458 19.0463 12.9678 19.0463 13.4877C19.0463 14.0076 18.6243 14.4296 18.1044 14.4296L14.4419 14.4293V18.0891C14.4419 18.609 14.0199 19.031 13.5 19.031C12.9801 19.031 12.5581 18.609 12.5581 18.0891V14.4293L8.89556 14.4296C8.3744 14.4296 7.9537 14.0076 7.9537 13.4877C7.9537 12.9678 8.3744 12.5458 8.89556 12.5458L12.5581 12.5456V8.88777C12.5581 8.36787 12.9801 7.94591 13.5 7.94591Z" fill="#4E4E4E"/>
</svg>
