<svg width="29" height="29" viewBox="0 0 29 29" fill="none" xmlns="http://www.w3.org/2000/svg">
<path d="M26.288 24.8996L22.1345 20.8388L22.0371 20.6907C21.8561 20.5105 21.6086 20.409 21.3503 20.409C21.0919 20.409 20.8444 20.5105 20.6634 20.6907C17.1336 23.9291 11.6944 24.1051 7.95328 21.1021C4.2121 18.099 3.32979 12.8487 5.89147 8.8332C8.45316 4.81767 13.6639 3.28294 18.068 5.24683C22.4722 7.21072 24.703 12.0638 23.281 16.5876C23.1786 16.9144 23.2623 17.2698 23.5006 17.5199C23.7389 17.77 24.0955 17.8768 24.4362 17.8001C24.7769 17.7234 25.0498 17.4749 25.1522 17.1481C26.8521 11.7797 24.2848 6.00254 19.1112 3.55386C13.9375 1.10518 7.7102 2.71983 4.45763 7.35329C1.20506 11.9868 1.90336 18.2485 6.10081 22.0878C10.2983 25.9271 16.7352 26.1918 21.2475 22.7106L24.9251 26.3061C25.3049 26.6758 25.919 26.6758 26.2988 26.3061C26.6782 25.9312 26.6782 25.3275 26.2988 24.9525L26.288 24.8996Z" fill="#4E4E4E"/>
</svg>
